<svg id="278d8ed8-d4a7-4301-9ac1-a6f926d88eb5" data-name="Layer 1" xmlns="http://www.w3.org/2000/svg" viewBox="0 0 50 50"><title>facebook-icon</title><path d="M28.11,43.75l-7.21,0V27.87H15.65V21h5.29c0-.13,0-.25,0-.38,0-.54,0-1.09,0-1.63,0-1.22,0-2.48.1-3.72a7.26,7.26,0,0,1,5.28-6.55A15.89,15.89,0,0,1,32,8.35l1.09.06c.21,0,.42,0,.63.07l.59.08v6.2H32.67l-.76,0c-.68,0-1.38,0-2.05.09-1.07.11-1.58.57-1.66,1.51-.09,1.12-.07,2.24,0,3.42,0,.39,0,.78,0,1.18h6.05L34,22.69c-.2,1.54-.39,3.06-.61,4.56a.91.91,0,0,1-.79.63c-.75,0-1.5,0-2.25,0H28.11ZM21.61,43l5.78,0V27.19h3c.74,0,1.49,0,2.23,0a.43.43,0,0,0,.13-.09c.19-1.43.38-2.93.58-4.48l.12-.9h-6v-.36c0-.51,0-1,0-1.53,0-1.2,0-2.33,0-3.49a2.23,2.23,0,0,1,2.3-2.17c.7-.07,1.42-.08,2.11-.09h1.74V9.19c-.18,0-.36-.05-.55-.06L32,9.06a15.27,15.27,0,0,0-5.44.31,6.56,6.56,0,0,0-4.77,5.91c-.08,1.22-.09,2.47-.1,3.68,0,.55,0,1.09,0,1.64,0,.16,0,.32,0,.5v.58h-5.3v5.47h5.25Z" /><path d="M40.54,50H9.46A9.51,9.51,0,0,1,0,40.54V9.46A9.51,9.51,0,0,1,9.46,0H40.54A9.51,9.51,0,0,1,50,9.46V40.54A9.51,9.51,0,0,1,40.54,50ZM9.46.91A8.56,8.56,0,0,0,.91,9.46V40.54a8.56,8.56,0,0,0,8.55,8.55H40.54a8.56,8.56,0,0,0,8.55-8.55V9.46A8.56,8.56,0,0,0,40.54.91Z" /></svg>
