<svg id="783e674f-aa6d-4d52-b041-0e174238839c" data-name="Layer 1" xmlns="http://www.w3.org/2000/svg" viewBox="0 0 42.02 49.24"><title>home-hover</title><path d="M12.49,47.06C13.59,34.68,1.62,23,3.84,9.87,5,3.11,11-1.27,16.69.77c4.64,1.66,6.17,5.51,7.76,9.24-1.57-2.65-4.23-7.48-9.29-8.12-3.8-.48-8.1,2.81-9.13,8-2.23,11.35,7.72,22.63,8.39,32.4" transform="translate(-3.56 -0.26)" /><path d="M12.22,49.5C19.34,38.33,37.38,36.86,44,24.24c3.41-6.48,1-14.34-5.3-16.58C33.6,5.84,29.75,8,25.92,10,29,8.91,34.5,6.69,39.33,9.67c3.63,2.24,5.24,8,2.73,13.1-5.45,11.1-21.5,13.67-28.46,21.42" transform="translate(-3.56 -0.26)" /></svg>
