<svg id="afb9b812-b66b-496a-8a63-7f7241037a4d" data-name="Layer 1" xmlns="http://www.w3.org/2000/svg" viewBox="0 0 50 50"><title>instagram-icon</title><path d="M12.87,49.93A12.71,12.71,0,0,1,.13,37.27L.07,12.88A12.69,12.69,0,0,1,12.73.14L37.12.07A12.72,12.72,0,0,1,49.86,12.74l.07,24.39A12.74,12.74,0,0,1,37.26,49.87ZM37.17,1.08l-24.43.07A11.68,11.68,0,0,0,1.08,12.87l.06,24.39A11.7,11.7,0,0,0,12.82,48.92l24.43-.06A11.72,11.72,0,0,0,48.92,37.14l-.07-24.39A11.7,11.7,0,0,0,37.17,1.08ZM12.85,46.61a9.37,9.37,0,0,1-9.4-9.35L3.4,18.41H17.07l-.76.84a11.66,11.66,0,1,0,17.37,0l-.76-.84H46.56l0,18.73a9.38,9.38,0,0,1-9.35,9.4ZM4.41,19.42l0,17.83a8.36,8.36,0,0,0,8.36,8.34l24.42-.06a8.37,8.37,0,0,0,8.34-8.39l0-17.72H35.13a12.67,12.67,0,1,1-20.26,0ZM25,36.37A9.34,9.34,0,1,1,34.34,27h0A9.34,9.34,0,0,1,25,36.37ZM25,18.7a8.23,8.23,0,0,0-3.31.69A8.33,8.33,0,1,0,33.33,27h0A8.35,8.35,0,0,0,25,18.7Zm17.43-3.32h-5.5a.8.8,0,0,1-.79-.79V9.09a.8.8,0,0,1,.79-.79h3.92a2.37,2.37,0,0,1,2.37,2.37v3.92A.8.8,0,0,1,42.42,15.38Zm-5.28-1H42.2v-3.7a1.36,1.36,0,0,0-1.35-1.35h-3.7Z" /></svg>
