<svg id="055a1a93-99c9-435e-8678-2de7e4ef5faa" data-name="Layer 1" xmlns="http://www.w3.org/2000/svg" viewBox="0 0 21.91 31.97"><title>Contact-Location</title><g id="4ba318b8-005c-445b-817c-7177aa967696" data-name="Page-3"><g id="81ebf2d4-1b44-412e-a5b5-c3a9a61ea25f" data-name="Contact"><g id="0969d984-1dfc-4f6f-bdb7-27df19e5d56f" data-name="Content"><g id="49518366-0a79-445a-a10e-a172e69739c0" data-name="Group-5"><g id="90508a79-3c7d-41a1-9ba8-b7ff955e50b6" data-name="phone/email/addy"><path id="f650ddfb-cd83-4020-b486-be3d41b19f29" data-name="Fill-1" d="M11.73,18.53a6.65,6.65,0,1,1,6.59-6.64,6.61,6.61,0,0,1-6.59,6.64M11.8.92A10.71,10.71,0,0,0,.87,11.8a12.62,12.62,0,0,0,.9,4.06c3.05,6.63,5.44,10.4,10.05,17,4.67-6.94,7.26-10.46,10.31-17a12.38,12.38,0,0,0,.65-4.06A10.76,10.76,0,0,0,11.8.92" transform="translate(-0.87 -0.92)" /></g></g></g></g></g></svg>
