<svg id="04f42d17-5daa-49b6-824a-05ecfb1d47e6" data-name="Layer 1" xmlns="http://www.w3.org/2000/svg" viewBox="0 0 291.16 102.42"><title>logo-color</title><path d="M100.86,149.09c2.26-25.47-22.36-49.4-17.79-76.49C85.42,58.7,97.8,49.69,109.51,53.88c9.53,3.42,12.69,11.33,16,19-3.24-5.45-8.7-15.38-19.1-16.69-7.81-1-16.66,5.78-18.77,16.54-4.59,23.34,15.87,46.54,17.26,66.64" transform="translate(-71.97 -52.85)" /><path d="M92.93,99.4A123.6,123.6,0,0,1,72,76.31c10.42,26.81,52.85,68.12,133.14,77.5l.19,0,.19,0c79.17,8.21,135.92-20.95,157.64-44.14a166.73,166.73,0,0,1-27.92,16.4c-25.73,12.08-68.8,25.21-127.91,19.12C148.38,138.3,112.58,116.49,92.93,99.4Z" transform="translate(-71.97 -52.85)" /><path d="M100.31,154.11c14.63-23,51.75-26,65.42-51.95,7-13.32,2.07-29.49-10.9-34.1-10.56-3.75-18.47.71-26.35,4.9,6.38-2.34,17.64-6.89,27.58-.77,7.47,4.6,10.79,16.42,5.62,26.94-11.21,22.82-44.21,28.11-58.54,44" transform="translate(-71.97 -52.85)" /><path d="M193.32,84.59a5.65,5.65,0,0,1-.43,2.2,5.73,5.73,0,0,1-1.18,1.8A5.52,5.52,0,0,1,190,89.8a5.19,5.19,0,0,1-2.14.44h-5.48v-29h5.48a5.19,5.19,0,0,1,2.14.45,5.56,5.56,0,0,1,1.74,1.21,5.75,5.75,0,0,1,1.18,1.8,5.65,5.65,0,0,1,.43,2.2Zm-3.17,0V66.86a2.31,2.31,0,0,0-.69-1.7,2.22,2.22,0,0,0-1.63-.69h-2.31V87h2.31a2.22,2.22,0,0,0,1.63-.69A2.31,2.31,0,0,0,190.14,84.59Z" transform="translate(-71.97 -52.85)" /><path d="M205.74,90.25h-2.12l-.7-1.29a2.82,2.82,0,0,1-1.18,1.15,4.58,4.58,0,0,1-2.15.42,4.5,4.5,0,0,1-1.76-.36,5,5,0,0,1-1.55-1,5.12,5.12,0,0,1-1.12-1.66,5.55,5.55,0,0,1-.43-2.24,10,10,0,0,1,1.53-5.53,9.47,9.47,0,0,1,1.53-1.86,21.37,21.37,0,0,1,1.74-1.47l1.67-1.25a9.59,9.59,0,0,0,1.37-1.23V72.76a3,3,0,0,0-.47-1.68,1.58,1.58,0,0,0-1.41-.71A2.16,2.16,0,0,0,198.41,72l-2.7-1.9a4.72,4.72,0,0,1,.69-1.07,4.92,4.92,0,0,1,1.1-1,6.16,6.16,0,0,1,1.45-.69,5.6,5.6,0,0,1,1.74-.26,4.72,4.72,0,0,1,2,.44,4.85,4.85,0,0,1,1.61,1.21,5.66,5.66,0,0,1,1,1.8,6.44,6.44,0,0,1,.37,2.2Zm-3.17-5.7V78.09q-.59.4-1.39,1a10.76,10.76,0,0,0-1.53,1.41,7.7,7.7,0,0,0-1.23,1.9,5.75,5.75,0,0,0-.51,2.46,2.34,2.34,0,0,0,.67,1.7,2.2,2.2,0,0,0,1.65.69,2.09,2.09,0,0,0,1.65-.85A2.84,2.84,0,0,0,202.56,84.55Z" transform="translate(-71.97 -52.85)" /><path d="M217.61,67.59l-4.07,22.66h-2.94l-4-22.66h3.6l2,14.22,2-14.22Z" transform="translate(-71.97 -52.85)" /><path d="M221.72,62a2.3,2.3,0,0,1-.47,1.45,1.43,1.43,0,0,1-1.18.61,1.42,1.42,0,0,1-1.18-.63,2.32,2.32,0,0,1-.47-1.43,2.26,2.26,0,0,1,.47-1.39,1.42,1.42,0,0,1,1.18-.63,1.43,1.43,0,0,1,1.18.61A2.24,2.24,0,0,1,221.72,62Zm-.12,28.23h-3.17V67.59h3.17Z" transform="translate(-71.97 -52.85)" /><path d="M233.9,90.25h-2.12l-.71-1.09a2.24,2.24,0,0,1-1,.83,4.54,4.54,0,0,1-2.06.42,4.67,4.67,0,0,1-2.06-.44,4.88,4.88,0,0,1-1.59-1.21,5.61,5.61,0,0,1-1-1.8,6.42,6.42,0,0,1-.37-2.2v-12a7.11,7.11,0,0,1,.33-2.2,5.67,5.67,0,0,1,.94-1.8,4.34,4.34,0,0,1,1.51-1.21,4.55,4.55,0,0,1,2-.44,4.16,4.16,0,0,1,1.92.4,2.62,2.62,0,0,1,1.06.85V61.09L233.9,60Zm-3.17-5.49v-12a2.32,2.32,0,0,0-.69-1.68,2.24,2.24,0,0,0-3.27,0,2.36,2.36,0,0,0-.67,1.68v12a2.34,2.34,0,0,0,.67,1.7,2.29,2.29,0,0,0,3.27,0A2.31,2.31,0,0,0,230.73,84.75Z" transform="translate(-71.97 -52.85)" /><path d="M254.2,90.25H251V77.16H246.4V90.25h-3.17v-29h3.17V73.89H251V61.21h3.17Z" transform="translate(-71.97 -52.85)" /><path d="M266.77,90.25h-2.12L264,89.16a3.21,3.21,0,0,1-1,.85,3.74,3.74,0,0,1-1.92.4,5,5,0,0,1-1.94-.38,4.83,4.83,0,0,1-1.63-1.11,5.29,5.29,0,0,1-1.12-1.78,6.49,6.49,0,0,1-.41-2.38V67.59h3.17V84.75a2.42,2.42,0,0,0,.63,1.7,2.2,2.2,0,0,0,3.19,0,2.38,2.38,0,0,0,.65-1.7V67.59h3.17Z" transform="translate(-71.97 -52.85)" /><path d="M280.29,70.34v8.89a4.89,4.89,0,0,1-5.09,5.37,2.39,2.39,0,0,0-1.63.58,1.56,1.56,0,0,0-.37,1,1.58,1.58,0,0,0,.24.75,1,1,0,0,0,.78.51h6.9l-1.76,3.27h-6Q271,90.69,271,92t2.35,1.33h5.09l-1.72,3.27h-3.37a6.06,6.06,0,0,1-3.94-1.25,4,4,0,0,1-1.55-3.31,4.15,4.15,0,0,1,1-2.79,5.14,5.14,0,0,1,2.64-1.62,1.46,1.46,0,0,1-.8-.65,1.9,1.9,0,0,1-.25-1,1.7,1.7,0,0,1,.43-1.09,2.31,2.31,0,0,1,1.33-.73,5.3,5.3,0,0,1-2.9-5V72.76a6.42,6.42,0,0,1,.37-2.2,5.63,5.63,0,0,1,1-1.8,4.74,4.74,0,0,1,1.65-1.21,5.26,5.26,0,0,1,2.19-.44,7.38,7.38,0,0,1,2.12.26,5.78,5.78,0,0,1,1.25.51h3.92Zm-3.17,8.89V72.76a2.31,2.31,0,0,0-.69-1.7,2.29,2.29,0,0,0-3.27,0,2.34,2.34,0,0,0-.67,1.7v6.46a2.34,2.34,0,0,0,.67,1.7,2.29,2.29,0,0,0,3.27,0A2.31,2.31,0,0,0,277.12,79.22Z" transform="translate(-71.97 -52.85)" /><path d="M294.31,90.25h-3.17V72.76a2.21,2.21,0,0,0-.76-1.68,2.43,2.43,0,0,0-3.43,0,2.23,2.23,0,0,0-.74,1.68V90.25H283V61.09L286.2,60v8a2.48,2.48,0,0,1,1-.63,5,5,0,0,1,1.74-.26,5.29,5.29,0,0,1,3.82,1.49,5.51,5.51,0,0,1,1.55,4.16Z" transform="translate(-71.97 -52.85)" /><path d="M306.54,85.12a5.87,5.87,0,0,1-.41,2.2,5.62,5.62,0,0,1-1.14,1.8,5.37,5.37,0,0,1-1.7,1.21,5.26,5.26,0,0,1-4.23,0,5.35,5.35,0,0,1-1.7-1.21,5.6,5.6,0,0,1-1.14-1.8,5.87,5.87,0,0,1-.41-2.2V72.76a5.64,5.64,0,0,1,.43-2.2,5.73,5.73,0,0,1,1.18-1.8,5.54,5.54,0,0,1,1.74-1.21,5.2,5.2,0,0,1,2.14-.44,5.42,5.42,0,0,1,2.14.42,5.16,5.16,0,0,1,1.74,1.21,5.74,5.74,0,0,1,1.18,1.92,7.23,7.23,0,0,1,.43,2.59,14.29,14.29,0,0,1-.39,3.61,8.23,8.23,0,0,1-1.21,2.65,9.85,9.85,0,0,1-2.45,2.32A38,38,0,0,1,299,84v1.09a2.47,2.47,0,0,0,.61,1.7,2.15,2.15,0,0,0,3.15,0,2.42,2.42,0,0,0,.63-1.7v-.36l3.17-1.09ZM303.6,73.4a3.24,3.24,0,0,0-.69-2.36,2.25,2.25,0,0,0-1.63-.67,2.17,2.17,0,0,0-1.65.71,2.36,2.36,0,0,0-.67,1.68v7.51a12.56,12.56,0,0,0,2.17-1.37,8.31,8.31,0,0,0,1.39-1.41,5.17,5.17,0,0,0,.84-1.86A10.33,10.33,0,0,0,303.6,73.4Z" transform="translate(-71.97 -52.85)" /><path d="M319.27,85.12a5.87,5.87,0,0,1-.41,2.2,5.37,5.37,0,0,1-2.94,3,5.78,5.78,0,0,1-2.29.44,5.84,5.84,0,0,1-2.35-.44,5,5,0,0,1-1.72-1.21,5.26,5.26,0,0,1-1.08-1.8,6.41,6.41,0,0,1-.37-2.2V83.54l3.17.73v.85a2.31,2.31,0,0,0,.69,1.7,2.26,2.26,0,0,0,1.67.69,2.49,2.49,0,0,0,1.7-.69,2.19,2.19,0,0,0,.76-1.7,3.71,3.71,0,0,0-.67-2.22,9.37,9.37,0,0,0-1.61-1.72q-.94-.79-2-1.53A8.28,8.28,0,0,1,310.14,78a8.07,8.07,0,0,1-1.31-2.44,9,9,0,0,1-.41-2.77,6.42,6.42,0,0,1,.37-2.2,5.27,5.27,0,0,1,1.08-1.8,5.1,5.1,0,0,1,1.7-1.21,5.5,5.5,0,0,1,2.25-.44,5.33,5.33,0,0,1,2.25.44,4.6,4.6,0,0,1,1.61,1.21,5,5,0,0,1,1,1.8,7.54,7.54,0,0,1,.31,2.2v1.58l-3.09-.73v-.85a2.47,2.47,0,0,0-.61-1.7,2,2,0,0,0-1.55-.69,1.9,1.9,0,0,0-1.55.69,2.57,2.57,0,0,0-.57,1.7,4.12,4.12,0,0,0,.61,2.3,7.75,7.75,0,0,0,1.49,1.68q.88.75,1.86,1.45a10.72,10.72,0,0,1,1.76,1.59,8,8,0,0,1,1.43,2.36A8.81,8.81,0,0,1,319.27,85.12Z" transform="translate(-71.97 -52.85)" /><path d="M193.71,123.42a5.73,5.73,0,0,1-.44,2.23,5.82,5.82,0,0,1-1.19,1.82,5.61,5.61,0,0,1-1.77,1.23,5.43,5.43,0,0,1-4.33,0,5.61,5.61,0,0,1-1.77-1.23,5.78,5.78,0,0,1-1.19-1.82,5.72,5.72,0,0,1-.44-2.23v-19a5.73,5.73,0,0,1,.44-2.23,5.79,5.79,0,0,1,1.19-1.82A5.63,5.63,0,0,1,186,99.11a5.43,5.43,0,0,1,4.33,0,5.63,5.63,0,0,1,1.77,1.23,5.83,5.83,0,0,1,1.19,1.82,5.73,5.73,0,0,1,.44,2.23Zm-3.22,0v-19a2.35,2.35,0,0,0-.7-1.72,2.26,2.26,0,0,0-1.65-.7,2.23,2.23,0,0,0-1.67.7,2.37,2.37,0,0,0-.68,1.72v19a2.37,2.37,0,0,0,.68,1.72,2.33,2.33,0,0,0,3.32,0A2.35,2.35,0,0,0,190.49,123.42Z" transform="translate(-71.97 -52.85)" /><path d="M201,105.42a3.22,3.22,0,0,1,1.15.18,2.08,2.08,0,0,1,.76.47l-1.11,3a1.66,1.66,0,0,0-.8-.29,2.2,2.2,0,0,0-1.67.72,2.39,2.39,0,0,0-.68,1.7v17.46h-3.22v-23h2.15l.72,1.43a3.27,3.27,0,0,1,1-1.11A2.74,2.74,0,0,1,201,105.42Z" transform="translate(-71.97 -52.85)" /><path d="M210.49,125.88a1.74,1.74,0,0,0,.87-.23,1.59,1.59,0,0,0,.6-.55l2.19,2.46a4.11,4.11,0,0,1-1.57,1.17,4.83,4.83,0,0,1-2,.43,4.51,4.51,0,0,1-3.7-1.6,6.24,6.24,0,0,1-1.31-4.1V108.54h-2v-2.91h2v-4.18l3.22-1.11v5.29h4.25v2.91h-4.25v14.92Q208.82,125.88,210.49,125.88Z" transform="translate(-71.97 -52.85)" /><path d="M226.67,128.62h-3.22V110.87a2.24,2.24,0,0,0-.78-1.7,2.46,2.46,0,0,0-3.48,0,2.26,2.26,0,0,0-.76,1.7v17.75h-3.22V99l3.22-1.11V106a2.52,2.52,0,0,1,1-.64,5,5,0,0,1,1.77-.27,5.37,5.37,0,0,1,3.88,1.52,5.59,5.59,0,0,1,1.57,4.22Z" transform="translate(-71.97 -52.85)" /><path d="M239.31,123.42a5.72,5.72,0,0,1-.44,2.23,5.82,5.82,0,0,1-1.19,1.82,5.61,5.61,0,0,1-1.77,1.23,5.43,5.43,0,0,1-4.33,0,5.61,5.61,0,0,1-1.77-1.23,5.8,5.8,0,0,1-1.19-1.82,5.73,5.73,0,0,1-.44-2.23V110.87a5.73,5.73,0,0,1,.44-2.23,5.83,5.83,0,0,1,1.19-1.82,5.63,5.63,0,0,1,1.77-1.23,5.43,5.43,0,0,1,4.33,0,5.63,5.63,0,0,1,1.77,1.23,5.85,5.85,0,0,1,1.19,1.82,5.73,5.73,0,0,1,.44,2.23Zm-3.22,0V110.87a2.36,2.36,0,0,0-.7-1.7,2.28,2.28,0,0,0-3.32,0,2.39,2.39,0,0,0-.68,1.7v12.54a2.38,2.38,0,0,0,.68,1.72,2.33,2.33,0,0,0,3.32,0A2.35,2.35,0,0,0,236.09,123.42Z" transform="translate(-71.97 -52.85)" /><path d="M251.71,128.62h-2.15l-.72-1.11a2.27,2.27,0,0,1-1.05.84,4.61,4.61,0,0,1-2.09.43,4.74,4.74,0,0,1-2.09-.45A5,5,0,0,1,242,127.1a5.69,5.69,0,0,1-1.05-1.82,6.51,6.51,0,0,1-.38-2.23V110.87a7.23,7.23,0,0,1,.34-2.23,5.75,5.75,0,0,1,1-1.82,4.41,4.41,0,0,1,1.53-1.23,4.62,4.62,0,0,1,2.07-.45,4.22,4.22,0,0,1,1.95.41,2.66,2.66,0,0,1,1.07.86V99l3.22-1.11ZM248.49,123V110.87a2.36,2.36,0,0,0-.7-1.7,2.28,2.28,0,0,0-3.32,0,2.39,2.39,0,0,0-.68,1.7V123a2.38,2.38,0,0,0,.68,1.72,2.33,2.33,0,0,0,3.32,0A2.34,2.34,0,0,0,248.49,123Z" transform="translate(-71.97 -52.85)" /><path d="M264.55,123.42a5.72,5.72,0,0,1-.44,2.23,5.82,5.82,0,0,1-1.19,1.82,5.61,5.61,0,0,1-1.77,1.23,5.43,5.43,0,0,1-4.33,0,5.61,5.61,0,0,1-1.77-1.23,5.8,5.8,0,0,1-1.19-1.82,5.73,5.73,0,0,1-.44-2.23V110.87a5.73,5.73,0,0,1,.44-2.23,5.83,5.83,0,0,1,1.19-1.82,5.63,5.63,0,0,1,1.77-1.23,5.43,5.43,0,0,1,4.33,0,5.63,5.63,0,0,1,1.77,1.23,5.85,5.85,0,0,1,1.19,1.82,5.73,5.73,0,0,1,.44,2.23Zm-3.22,0V110.87a2.36,2.36,0,0,0-.7-1.7,2.28,2.28,0,0,0-3.32,0,2.39,2.39,0,0,0-.68,1.7v12.54a2.38,2.38,0,0,0,.68,1.72,2.33,2.33,0,0,0,3.32,0A2.35,2.35,0,0,0,261.33,123.42Z" transform="translate(-71.97 -52.85)" /><path d="M277.75,128.62h-3.22V111.16a2.24,2.24,0,0,0-.78-1.7,2.49,2.49,0,0,0-1.73-.72,2.53,2.53,0,0,0-1.77.72,2.24,2.24,0,0,0-.77,1.7v17.46h-3.22v-23h2.15l.72,1.07a2.54,2.54,0,0,1,1.21-1,4.56,4.56,0,0,1,1.69-.31,5.42,5.42,0,0,1,2.19.45A6.08,6.08,0,0,1,276,107.1a5.77,5.77,0,0,1,1.25,1.82,5.54,5.54,0,0,1,.46,2.23Z" transform="translate(-71.97 -52.85)" /><path d="M285.94,125.88a1.74,1.74,0,0,0,.87-.23,1.59,1.59,0,0,0,.6-.55l2.19,2.46a4.11,4.11,0,0,1-1.57,1.17,4.83,4.83,0,0,1-2,.43,4.51,4.51,0,0,1-3.7-1.6,6.24,6.24,0,0,1-1.31-4.1V108.54h-2v-2.91h2v-4.18l3.22-1.11v5.29h4.25v2.91h-4.25v14.92Q284.27,125.88,285.94,125.88Z" transform="translate(-71.97 -52.85)" /><path d="M294,100a2.34,2.34,0,0,1-.48,1.48,1.45,1.45,0,0,1-1.19.61,1.44,1.44,0,0,1-1.19-.64,2.35,2.35,0,0,1-.48-1.45,2.29,2.29,0,0,1,.48-1.41,1.44,1.44,0,0,1,1.19-.64,1.46,1.46,0,0,1,1.19.61A2.28,2.28,0,0,1,294,100Zm-.12,28.65h-3.22v-23h3.22Z" transform="translate(-71.97 -52.85)" /><path d="M301.13,108.46a2.2,2.2,0,0,0-1.67.72,2.39,2.39,0,0,0-.68,1.7v12.54a2.38,2.38,0,0,0,.68,1.72,2.33,2.33,0,0,0,3.32,0,2.35,2.35,0,0,0,.7-1.72V123l3.22-1.11v1.48a5.73,5.73,0,0,1-.44,2.23,5.82,5.82,0,0,1-1.19,1.82,5.61,5.61,0,0,1-1.77,1.23,5.43,5.43,0,0,1-4.33,0,5.61,5.61,0,0,1-1.77-1.23,5.8,5.8,0,0,1-1.19-1.82,5.72,5.72,0,0,1-.44-2.23V110.87a6.33,6.33,0,0,1,.44-2.42,5.3,5.3,0,0,1,1.19-1.8,5.14,5.14,0,0,1,1.77-1.13,6,6,0,0,1,2.17-.39,5.73,5.73,0,0,1,2.17.41,5.4,5.4,0,0,1,1.77,1.14,5.29,5.29,0,0,1,1.19,1.79,6.14,6.14,0,0,1,.44,2.36v1h-3.22v-1a2.32,2.32,0,0,0-.7-1.68A2.23,2.23,0,0,0,301.13,108.46Z" transform="translate(-71.97 -52.85)" /><path d="M319.33,123.42a6,6,0,0,1-.42,2.23,5.45,5.45,0,0,1-3,3.05,5.86,5.86,0,0,1-2.33.45,5.93,5.93,0,0,1-2.39-.45,5.11,5.11,0,0,1-1.75-1.23,5.34,5.34,0,0,1-1.09-1.82,6.51,6.51,0,0,1-.38-2.23v-1.6l3.22.74v.86a2.34,2.34,0,0,0,.7,1.72,2.29,2.29,0,0,0,1.69.7,2.52,2.52,0,0,0,1.73-.7,2.23,2.23,0,0,0,.77-1.72,3.77,3.77,0,0,0-.68-2.25,9.51,9.51,0,0,0-1.63-1.74q-1-.8-2-1.56a8.4,8.4,0,0,1-1.75-1.7,8.19,8.19,0,0,1-1.33-2.48,9.08,9.08,0,0,1-.42-2.81,6.52,6.52,0,0,1,.38-2.23,5.33,5.33,0,0,1,1.09-1.82,5.18,5.18,0,0,1,1.73-1.23,5.58,5.58,0,0,1,2.29-.45,5.4,5.4,0,0,1,2.29.45,4.66,4.66,0,0,1,1.63,1.23,5.11,5.11,0,0,1,1,1.82,7.65,7.65,0,0,1,.32,2.23v1.6l-3.14-.74v-.86a2.51,2.51,0,0,0-.62-1.72,2,2,0,0,0-1.57-.7,1.93,1.93,0,0,0-1.57.7,2.61,2.61,0,0,0-.58,1.72,4.18,4.18,0,0,0,.62,2.34,7.87,7.87,0,0,0,1.51,1.7q.89.76,1.89,1.48a10.9,10.9,0,0,1,1.79,1.62,8.13,8.13,0,0,1,1.45,2.4A8.92,8.92,0,0,1,319.33,123.42Z" transform="translate(-71.97 -52.85)" /></svg>
