<svg id="20824413-35e6-4f6f-a076-91ac78c524ab" data-name="aa2c35d3-64b5-4eb0-ad11-b72c21274e14" xmlns="http://www.w3.org/2000/svg" viewBox="0 0 49 49"><defs><style>.b99b0a3e-e617-4260-8593-6f401305eb54{fill:#fffcfa;}</style></defs><title>NextArrow</title><circle class="11d6e1df-e8b6-4ef2-8bd6-114277a85b85" cx="24.5" cy="24.5" r="24.5"/><path class="b99b0a3e-e617-4260-8593-6f401305eb54" d="M33,24.44a2.27,2.27,0,0,0-.24-.83l-6.53-10a1,1,0,0,0-1.38-.33l-.15.12a1.61,1.61,0,0,0-.17,1.88l5.12,7.83H1.44a1.36,1.36,0,0,0,0,2.67H29.67l-5.12,7.83a1.65,1.65,0,0,0,.17,1.89,1,1,0,0,0,1.53-.21l6.53-10a1.4,1.4,0,0,0,.24-.83Z"/></svg>
