<svg id="851ca886-55cd-4857-8e20-7fed3dc6112b" data-name="aa2c35d3-64b5-4eb0-ad11-b72c21274e14" xmlns="http://www.w3.org/2000/svg" viewBox="0 0 49 49"><defs><style>.\37 f9ae73b-1d44-4585-80f8-bdaa352e4fc8{fill:#fffcfa;}</style></defs><title>PrevArrow</title><circle class="7fa6a29e-8e8e-40de-8126-4177a8bb671c" cx="24.5" cy="24.5" r="24.5"/><path class="7f9ae73b-1d44-4585-80f8-bdaa352e4fc8" d="M16,24.46a1.4,1.4,0,0,0,.24.83l6.53,10a1,1,0,0,0,1.53.21,1.65,1.65,0,0,0,.17-1.89l-5.12-7.83H47.56a1.36,1.36,0,0,0,0-2.67H19.32l5.12-7.83a1.61,1.61,0,0,0-.17-1.88l-.15-.12a1,1,0,0,0-1.38.33l-6.53,10a2.27,2.27,0,0,0-.24.83Z"/></svg>
