<svg id="f2ee7b2c-ef15-497e-83d6-6ca04502a2c9" data-name="Layer 1" xmlns="http://www.w3.org/2000/svg" viewBox="0 0 48.13 32.19"><title>quotes</title><path d="M12.09,9.75A11.29,11.29,0,0,0,1.58,25.49a10.77,10.77,0,0,0,10.48,6.71h0c1.48-.07-1.17,4.48-3.31,7.87a1.23,1.23,0,0,0,1.67,1.71C21,35.66,23.1,24.28,23.15,21.13A11.22,11.22,0,0,0,12.09,9.75Z" transform="translate(-0.71 -9.75)" /><path d="M37.77,9.75a11.29,11.29,0,0,0-10.5,15.74,10.77,10.77,0,0,0,10.48,6.71h0c1.48-.07-1.17,4.48-3.31,7.87a1.23,1.23,0,0,0,1.67,1.71c10.56-6.11,12.68-17.49,12.72-20.64A11.22,11.22,0,0,0,37.77,9.75Z" transform="translate(-0.71 -9.75)" /></svg>
