<svg id="662cb20a-87d6-4b32-9a41-e98765f7edaa" data-name="Layer 1" xmlns="http://www.w3.org/2000/svg" viewBox="0 0 49.46 45.11"><title>refer-button</title><path d="M.27,35.57V19.39a5.32,5.32,0,0,1,5.33-5.33H8.82v3.74H5.59A1.6,1.6,0,0,0,4,19.39V35.52a1.65,1.65,0,0,0,1.64,1.64H8.31v4.2l4.2-4.2H32.32A1.65,1.65,0,0,0,34,35.52V32.76h.61l3.07,3.07a5.33,5.33,0,0,1-5.33,5H14l-6,6.09a1.83,1.83,0,0,1-1.38.61,2,2,0,0,1-2-2V40.8A5.37,5.37,0,0,1,.27,35.57ZM49.73,7.77V23.9a5.38,5.38,0,0,1-4.25,5.22v4.76a2.28,2.28,0,0,1-.61,1.48,2.45,2.45,0,0,1-1.43.51A2,2,0,0,1,42,35.27l-6-6H17.73A5.32,5.32,0,0,1,12.4,24V7.77a5.32,5.32,0,0,1,5.33-5.33H44.36A5.3,5.3,0,0,1,49.73,7.77ZM38.67,17.45V14.07H29.92l3-3L30.48,8.69l-4.92,4.92-2.15,2.15h0l.61.61,1.79,1.79h0l2.51,2.51,2.15,2.15,2.41-2.41-2.15-2.1-.82-.82h7.17Z" transform="translate(-0.27 -2.44)" /></svg>
